<?xml version="1.0" standalone="no"?>
<!DOCTYPE svg PUBLIC "-//W3C//DTD SVG 20010904//EN"
 "http://www.w3.org/TR/2001/REC-SVG-20010904/DTD/svg10.dtd">
<svg version="1.0" xmlns="http://www.w3.org/2000/svg"
 width="1024.000000pt" height="1024.000000pt" viewBox="0 0 1024.000000 1024.000000"
 preserveAspectRatio="xMidYMid meet">

<g transform="translate(0.000000,1024.000000) scale(0.100000,-0.100000)"
fill="#000000" stroke="none">
<path d="M5158 10210 c-16 -5 -45 -22 -65 -38 -21 -16 -71 -51 -111 -76 -111
-72 -184 -138 -255 -228 -133 -171 -177 -261 -177 -361 0 -69 12 -100 84 -217
30 -48 75 -131 99 -183 49 -104 90 -168 138 -216 21 -22 28 -35 22 -44 -6 -6
-43 -106 -83 -222 -40 -115 -98 -277 -128 -360 -144 -397 -148 -417 -138 -674
4 -97 10 -207 14 -244 5 -45 5 -73 -2 -81 -21 -25 -72 -53 -161 -89 -87 -34
-136 -45 -315 -67 -334 -43 -529 -108 -692 -230 -166 -125 -588 -628 -796
-950 -41 -63 -110 -152 -153 -198 -151 -160 -217 -286 -269 -517 -18 -77 -41
-178 -52 -225 -26 -109 -20 -311 12 -435 34 -134 92 -287 128 -343 114 -174
356 -282 652 -288 125 -3 235 9 268 30 14 9 14 10 3 -129 -5 -60 -12 -173 -16
-250 -3 -77 -11 -189 -16 -250 -5 -60 -12 -146 -16 -191 l-6 -81 -46 18 c-86
32 -160 42 -231 31 -36 -5 -66 -9 -68 -7 -1 1 17 42 40 91 41 86 43 92 43 189
0 94 -2 105 -34 169 -45 92 -117 163 -215 211 -68 34 -88 39 -165 43 -106 5
-176 -12 -251 -63 -55 -37 -75 -41 -129 -25 -108 31 -282 45 -556 45 -308 -1
-422 -10 -650 -56 -459 -92 -709 -261 -808 -548 -40 -116 -44 -263 -9 -359 33
-91 94 -183 164 -247 118 -106 334 -194 446 -181 79 9 147 42 191 92 58 66 73
137 49 232 l-11 46 49 43 c44 39 261 159 270 150 2 -2 -31 -54 -73 -115 -43
-61 -121 -178 -173 -259 -179 -278 -340 -471 -431 -519 -37 -19 -93 -15 -159
11 -25 10 -74 18 -110 19 -54 1 -73 -4 -113 -27 -158 -93 -188 -336 -70 -577
43 -88 139 -190 220 -233 67 -35 191 -67 264 -67 199 0 416 103 618 295 65 61
172 180 188 209 8 14 17 14 93 -5 47 -11 110 -22 141 -26 l57 -6 7 -61 c10
-93 53 -259 90 -348 134 -318 390 -467 649 -378 168 57 279 161 307 284 l11
52 69 11 c162 25 248 137 266 342 l6 74 34 -72 c52 -108 126 -183 237 -236
123 -59 178 -70 326 -69 109 1 135 4 198 27 40 14 99 44 131 65 l58 38 34 -23
c19 -13 50 -31 69 -40 21 -10 29 -17 20 -19 -8 -2 -100 -20 -205 -39 -243 -46
-372 -84 -513 -151 -194 -91 -296 -179 -360 -309 -59 -117 -52 -290 17 -410
114 -199 368 -349 611 -362 94 -5 111 -3 158 17 98 42 159 141 150 242 -3 29
-8 60 -12 69 -6 13 12 23 86 52 180 70 366 110 683 148 659 78 1308 114 2275
127 l535 7 63 29 c78 36 187 148 233 238 42 83 50 171 21 245 l-20 53 102 -6
c146 -9 242 18 381 105 17 11 28 8 80 -24 70 -42 131 -62 234 -76 113 -16 215
-1 339 48 l64 25 61 -25 c116 -48 182 -61 327 -61 154 0 221 14 334 70 213
106 337 283 375 539 16 109 -10 265 -61 371 l-30 60 46 69 c63 94 87 163 93
265 10 154 -31 265 -133 368 -104 104 -216 144 -409 146 -123 1 -221 -21 -330
-74 -85 -41 -211 -139 -234 -183 -8 -15 -17 -27 -20 -27 -3 0 -17 21 -30 46
-80 149 -288 216 -486 156 -70 -21 -174 -81 -207 -119 -17 -19 -19 -18 -76 37
-41 40 -76 64 -118 80 -67 25 -175 44 -211 37 -15 -3 -22 0 -19 7 112 262 140
475 90 669 -8 34 -22 74 -30 90 -14 25 -13 34 2 80 9 29 31 75 49 102 46 71
93 177 117 264 18 66 20 94 15 235 -7 238 -50 402 -177 676 -34 74 -84 186
-111 248 -78 182 -283 756 -323 907 -27 100 -73 180 -143 246 -57 54 -60 59
-39 59 7 0 78 41 157 92 223 143 388 316 457 481 103 247 17 515 -201 621
-180 88 -413 21 -604 -176 -135 -139 -275 -425 -304 -621 -7 -45 -14 -84 -15
-86 -2 -2 -9 1 -16 7 -15 12 -241 85 -348 112 -41 10 -118 26 -170 34 -76 13
-116 26 -197 68 -115 57 -116 59 -82 139 19 44 28 53 83 78 67 32 85 55 117
148 10 31 38 86 61 121 39 60 42 70 48 156 5 64 17 124 43 203 20 62 37 119
37 128 0 16 116 148 134 153 7 1 34 -24 59 -57 53 -68 177 -156 233 -167 19
-3 86 -5 149 -2 106 4 116 6 156 34 72 49 133 118 168 189 48 97 43 120 -68
340 -50 99 -106 218 -125 265 -72 178 -109 266 -126 300 -9 19 -20 65 -23 102
-8 83 -44 165 -131 297 -113 169 -277 311 -444 383 l-77 33 -180 0 c-190 0
-187 0 -380 62 -72 23 -133 36 -176 37 -50 2 -73 7 -94 24 -15 12 -43 24 -64
28 -20 3 -80 17 -133 30 -99 25 -153 28 -200 14z m192 -76 c100 -19 190 -57
197 -83 4 -16 9 -18 36 -10 40 12 108 -3 199 -43 38 -16 128 -41 202 -55 129
-26 137 -26 236 -13 123 16 188 6 295 -45 96 -46 244 -186 326 -308 62 -93
129 -217 129 -239 0 -7 -26 13 -57 43 -78 75 -132 115 -188 140 -70 31 -74 18
-9 -25 113 -76 195 -178 288 -363 25 -50 46 -94 46 -97 0 -3 65 -137 145 -297
80 -160 145 -303 145 -317 -1 -92 -69 -212 -152 -267 -37 -24 -47 -27 -95 -21
-76 9 -105 27 -166 101 -62 75 -107 158 -107 198 0 31 12 34 64 12 30 -13 42
-28 68 -82 33 -67 129 -183 153 -183 36 0 59 73 39 124 -11 30 -159 132 -256
179 -94 44 -121 67 -78 67 12 0 37 -8 58 -19 53 -27 131 -41 222 -41 59 0 96
-6 147 -25 37 -13 69 -22 71 -20 2 2 -3 16 -12 32 -24 47 -89 99 -132 107 -63
12 -155 60 -220 113 -50 42 -70 68 -109 145 -57 110 -75 132 -137 164 -52 27
-68 61 -23 50 53 -13 183 -8 218 9 39 18 86 64 55 52 -60 -22 -114 -30 -188
-30 -96 0 -135 12 -267 84 l-81 45 46 24 c128 66 180 114 198 184 7 29 6 28
-31 -13 -53 -59 -105 -86 -212 -112 l-92 -22 -58 35 c-32 20 -73 43 -90 52
-18 9 -33 20 -33 25 0 4 18 16 40 26 23 10 55 34 72 54 29 33 63 99 56 107 -2
2 -35 -27 -74 -64 -91 -87 -127 -100 -232 -84 -219 35 -346 55 -432 70 l-95
17 -3 45 c-5 82 -22 182 -37 210 -8 16 -39 55 -68 87 -30 32 -66 79 -81 106
-15 26 -30 47 -32 47 -2 0 -4 -21 -4 -46 0 -44 3 -49 78 -123 69 -68 80 -85
95 -137 9 -33 17 -75 17 -92 0 -29 -3 -32 -30 -32 -17 0 -43 6 -58 14 -37 19
-195 183 -216 224 -27 52 -58 161 -50 175 4 6 26 28 49 48 22 21 49 53 60 73
23 42 33 44 155 20z m-464 -281 c11 -17 27 -59 34 -92 11 -51 18 -63 45 -80
18 -10 58 -50 88 -89 31 -39 70 -80 87 -92 16 -12 30 -27 30 -34 0 -7 -18 -27
-39 -44 l-40 -32 -22 33 c-13 17 -45 57 -72 87 -48 54 -48 56 -42 107 8 65 -8
77 -29 21 -11 -30 -15 -71 -13 -138 2 -86 -1 -100 -26 -150 -32 -65 -73 -117
-83 -107 -4 4 4 20 18 35 36 37 69 104 75 152 7 48 -1 51 -22 10 -9 -16 -22
-30 -31 -30 -21 0 -99 54 -162 114 -41 39 -51 54 -46 70 9 29 124 202 169 254
21 24 42 41 49 39 6 -2 20 -17 32 -34z m610 -383 c55 -12 176 -30 271 -41 207
-23 270 -42 388 -112 203 -120 320 -209 484 -370 174 -170 187 -207 125 -337
-63 -133 -207 -320 -246 -320 -8 0 -37 28 -64 61 -63 79 -216 216 -313 280
-153 102 -370 188 -646 258 -202 52 -336 63 -440 36 -51 -14 -61 -14 -73 -1
-12 12 -12 22 2 78 9 35 16 71 16 80 0 8 16 36 35 61 28 37 35 55 35 91 0 24
5 57 11 72 12 32 132 153 169 171 39 18 138 15 246 -7z m-86 -627 c89 -16 445
-128 540 -170 106 -47 167 -129 183 -251 25 -177 4 -442 -41 -526 -16 -30 -18
-43 -10 -67 5 -16 12 -29 14 -29 2 0 10 15 17 33 10 22 33 43 77 70 35 20 71
37 81 37 11 0 25 -17 39 -45 18 -37 21 -59 18 -109 -3 -53 -9 -70 -42 -115
-21 -28 -51 -87 -67 -129 -16 -44 -40 -87 -54 -99 -28 -25 -81 -31 -88 -10 -6
16 -2 22 -77 -127 -53 -105 -75 -137 -120 -178 -50 -45 -198 -128 -229 -128
-7 0 -50 -16 -97 -35 -46 -19 -87 -35 -89 -35 -3 0 10 14 29 31 80 70 167 239
123 239 -9 0 -59 -38 -111 -84 -113 -101 -160 -130 -246 -152 -114 -29 -291
-5 -366 50 -15 12 -16 17 -7 27 9 9 31 9 102 -1 122 -17 206 -10 270 25 52 29
88 61 79 71 -3 3 -30 -7 -60 -23 -51 -27 -59 -28 -183 -27 -155 1 -199 14
-227 65 -21 39 -23 72 -7 118 12 35 41 51 90 51 43 0 88 26 89 52 0 4 -18 28
-40 53 -23 27 -40 57 -40 71 0 29 1 29 68 4 100 -38 280 -20 365 36 32 21 41
23 54 12 22 -18 10 -108 -24 -178 -15 -30 -29 -59 -31 -65 -14 -31 48 40 88
101 56 86 74 144 68 223 -3 49 -11 70 -41 114 -48 70 -104 133 -110 127 -9 -8
18 -133 36 -167 9 -18 17 -37 17 -42 0 -31 -209 -43 -293 -17 -56 17 -127 63
-127 82 0 7 23 20 50 29 28 9 50 22 50 28 0 7 -18 41 -40 77 -22 36 -40 73
-40 82 0 20 29 38 59 38 12 0 21 7 21 15 0 8 -7 15 -15 15 -24 0 -18 20 20 61
42 47 76 113 104 203 27 88 26 104 -5 152 -56 86 -195 141 -290 116 -26 -7
-49 -10 -52 -7 -3 3 11 40 31 83 24 50 37 93 37 119 0 46 21 68 97 98 92 37
184 39 353 8z m-337 -397 c52 -19 77 -44 77 -76 0 -44 -44 -53 -92 -19 -16 12
-49 27 -71 34 -44 13 -58 35 -37 60 15 19 73 19 123 1z m-90 -118 c18 -13 49
-31 69 -40 21 -9 38 -21 38 -27 0 -12 -45 -48 -68 -56 -12 -3 -18 -17 -18 -44
-1 -25 -12 -53 -31 -82 -38 -55 -127 -139 -147 -139 -51 0 -11 250 48 299 14
12 22 12 58 -2 23 -9 43 -15 45 -13 2 2 -8 17 -22 34 -25 30 -35 92 -14 92 6
0 25 -10 42 -22z m2769 -575 c41 -23 78 -94 78 -148 0 -141 -91 -307 -264
-481 -141 -141 -253 -202 -404 -219 -58 -7 -62 -9 -56 -29 14 -47 35 -75 71
-98 34 -20 50 -23 143 -23 97 0 110 2 173 32 37 18 67 30 67 28 0 -2 -28 -21
-62 -42 -130 -81 -244 -111 -352 -95 -42 7 -77 7 -91 2 -13 -5 -77 -63 -142
-128 -65 -65 -242 -230 -393 -367 -238 -215 -584 -532 -702 -643 l-37 -35 -76
30 -77 30 269 239 c525 466 949 852 992 900 64 73 86 124 121 288 40 190 63
262 112 361 104 208 269 362 437 411 59 17 152 11 193 -13z m-2974 -54 c22
-31 23 -41 17 -109 -7 -74 -41 -249 -51 -259 -9 -9 -22 21 -39 88 -33 127 -8
333 39 318 6 -2 22 -19 34 -38z m296 -69 c67 -27 89 -31 188 -33 62 -1 122 2
133 6 35 15 -26 -30 -72 -53 -135 -67 -286 -40 -339 61 -14 29 -12 49 6 49 5
0 42 -14 84 -30z m-349 -596 c43 -42 91 -76 162 -112 55 -28 105 -58 112 -66
16 -19 27 -86 13 -86 -29 0 -194 55 -243 81 -60 33 -133 99 -162 149 l-19 31
26 -7 c30 -7 32 -2 10 31 -25 38 -37 104 -22 122 10 12 16 7 36 -34 14 -26 53
-75 87 -109z m1315 99 c21 -36 21 -38 4 -82 -51 -133 -284 -271 -515 -304
l-37 -5 26 45 c30 54 79 91 169 129 101 41 196 107 266 185 34 38 63 69 64 69
0 0 11 -17 23 -37z m432 -158 c84 -24 207 -62 273 -83 112 -36 120 -40 117
-63 -5 -47 -54 -100 -249 -271 -109 -95 -247 -219 -306 -276 -60 -57 -112
-101 -114 -98 -6 6 12 332 32 581 8 99 15 200 17 223 l2 44 38 -6 c21 -3 106
-26 190 -51z m-1924 -18 c30 -53 95 -115 160 -153 17 -10 32 -22 32 -27 0 -5
-20 -73 -45 -150 -24 -78 -54 -181 -66 -228 l-21 -87 -36 -6 c-21 -3 -59 -6
-87 -6 -27 0 -105 -7 -173 -16 -68 -9 -125 -14 -127 -12 -11 10 316 738 330
738 2 0 17 -24 33 -53z m-330 36 c-2 -5 -76 -154 -164 -333 -154 -309 -345
-718 -430 -917 -21 -51 -41 -93 -44 -93 -3 0 -4 70 -2 156 4 170 -7 249 -55
398 l-27 81 -7 -45 c-4 -25 -13 -129 -20 -232 l-13 -188 -23 39 c-35 60 -78
200 -122 401 -57 260 -59 266 -60 140 -2 -206 37 -579 94 -900 8 -47 15 -91
15 -97 0 -9 -21 -12 -77 -10 -43 1 -90 -1 -105 -6 -18 -4 -28 -4 -28 3 0 9
-115 154 -199 250 -36 42 -37 36 -11 -75 11 -47 20 -87 20 -89 0 -2 -42 -6
-93 -9 -233 -15 -425 -136 -584 -366 -21 -31 19 228 48 305 33 89 75 147 201
280 78 81 146 166 207 258 94 140 444 570 561 687 55 56 137 119 155 119 3 0
5 -5 5 -11 0 -24 89 -195 118 -229 l31 -35 0 35 c0 19 -10 92 -23 162 l-23
126 76 45 c145 86 169 96 321 121 196 34 264 41 258 29z m1760 -263 c-38 -277
-80 -535 -89 -544 -5 -6 -81 2 -196 22 -351 60 -565 84 -864 98 l-146 6 22 55
c13 30 47 126 76 214 49 145 55 160 74 154 205 -62 561 -80 769 -40 122 23
261 84 341 149 17 13 30 23 31 23 1 -1 -7 -63 -18 -137z m1266 -159 c55 -13
140 -75 176 -128 38 -59 68 -139 86 -231 15 -78 166 -536 219 -667 18 -44 78
-170 132 -280 120 -242 181 -387 219 -520 26 -90 29 -115 29 -245 0 -163 -11
-211 -73 -314 l-36 -60 -12 50 c-24 99 -78 216 -146 317 -140 207 -317 338
-506 377 l-84 16 59 27 c125 56 227 59 348 11 84 -34 206 -112 268 -172 53
-52 61 -49 20 6 -63 84 -111 136 -173 187 -203 166 -366 153 -695 -55 -49 -31
-117 -71 -149 -90 l-59 -33 7 28 c4 16 18 81 31 146 13 64 33 143 44 175 11
32 18 60 17 62 -2 1 -18 -10 -36 -25 -34 -28 -90 -137 -126 -243 l-18 -55 -8
40 c-4 22 -11 106 -14 186 -11 232 22 381 141 654 190 437 195 453 178 546 -7
42 -11 50 -18 34 -4 -11 -50 -112 -103 -225 -109 -236 -210 -482 -246 -602
-57 -188 -61 -215 -60 -491 0 -282 -1 -283 -51 -138 -45 127 -65 223 -65 305
0 45 -3 91 -6 104 -6 20 -9 15 -24 -30 -32 -97 -41 -142 -48 -238 l-7 -95 -48
92 c-94 182 -153 367 -183 579 l-17 115 29 31 c16 16 146 141 289 276 143 135
330 314 415 398 85 83 169 159 185 168 34 18 64 19 119 7z m-1718 -1042 c225
-77 334 -152 349 -238 6 -39 -6 -85 -32 -113 -15 -16 -18 -15 -57 18 -22 19
-102 66 -177 104 -130 66 -137 69 -153 51 -9 -9 -16 -20 -16 -22 0 -3 57 -34
127 -70 157 -79 233 -146 233 -205 0 -49 -30 -95 -81 -123 -34 -19 -43 -21
-50 -10 -5 8 -9 19 -9 24 0 37 -111 128 -234 194 l-60 32 -25 -25 c-14 -14
-23 -27 -20 -29 2 -2 48 -29 102 -61 54 -32 119 -78 144 -102 41 -39 45 -46
39 -76 -9 -45 -35 -80 -79 -101 l-37 -19 -43 44 c-45 47 -136 106 -205 133
-34 14 -45 15 -57 5 -17 -14 -20 -30 -6 -30 17 0 178 -100 201 -125 29 -30 39
-105 17 -123 -13 -11 -33 -8 -114 17 -156 48 -205 53 -427 46 -168 -6 -209 -4
-251 9 -84 26 -122 20 -353 -55 -346 -112 -606 -171 -886 -198 -203 -20 -396
-9 -526 31 l-45 14 1 120 c1 100 6 132 29 204 63 195 150 314 290 396 l50 29
370 -3 c647 -6 854 23 1490 209 132 39 251 74 265 79 54 18 118 10 236 -31z
m-2416 -164 c0 -2 -17 -13 -38 -24 -21 -10 -70 -49 -110 -86 -177 -164 -265
-363 -279 -625 -11 -214 48 -390 173 -517 l62 -63 -77 0 c-205 0 -419 121
-493 280 -51 107 -61 170 -55 340 6 172 25 263 79 383 53 115 192 227 350 281
40 14 82 27 93 29 28 6 295 8 295 2z m4205 -601 c126 -33 201 -78 294 -171
160 -161 260 -350 286 -541 l7 -53 -58 31 c-94 50 -154 63 -268 58 l-101 -4
-28 85 c-45 136 -109 243 -207 342 -105 106 -197 157 -298 167 l-67 7 79 44
c44 24 93 48 110 52 44 12 180 2 251 -17z m-2192 -105 c40 -6 95 -20 122 -30
112 -41 466 -122 609 -140 174 -21 381 -3 746 67 257 49 314 49 402 5 82 -41
175 -124 230 -204 53 -77 125 -231 133 -282 6 -39 5 -41 -44 -79 -68 -51 -117
-107 -196 -227 -45 -68 -72 -99 -85 -99 -36 0 -374 50 -610 91 -392 67 -446
77 -694 131 -213 46 -242 50 -270 39 -144 -59 -284 -94 -481 -119 -67 -9 -240
-55 -254 -68 -2 -2 2 -11 10 -20 13 -16 11 -17 -25 -11 -60 10 -144 55 -159
85 -16 33 -12 65 11 85 23 21 184 74 250 83 l54 7 -24 23 c-23 23 -24 23 -98
9 -128 -25 -198 -53 -243 -98 l-40 -40 -29 32 c-35 40 -39 104 -7 144 29 38
136 85 260 116 l108 26 -18 23 -17 23 -74 -17 c-156 -34 -310 -114 -310 -160
0 -41 -55 21 -71 82 -30 105 64 175 349 260 50 15 92 30 92 34 0 3 -6 14 -13
24 -12 16 -20 16 -137 -14 -68 -17 -139 -38 -158 -45 -39 -17 -107 -67 -139
-104 l-23 -26 -20 24 c-43 51 -16 142 59 197 51 37 234 112 351 144 142 38
321 49 453 29z m2566 -785 c68 -20 132 -78 162 -147 28 -64 37 -195 20 -294
-49 -282 -307 -764 -567 -1055 -35 -40 -44 -59 -52 -110 -29 -168 -23 -347 14
-423 19 -40 67 -60 116 -50 93 21 185 211 238 495 52 277 150 474 263 529 80
39 206 24 264 -31 41 -39 47 -77 19 -139 -71 -161 -144 -461 -153 -626 -7
-129 7 -187 51 -214 72 -44 126 -15 190 103 55 99 85 190 122 368 19 91 42
190 51 220 21 73 73 185 111 236 99 135 356 123 378 -18 5 -27 -2 -50 -29
-104 -42 -84 -98 -240 -134 -378 -23 -87 -27 -122 -27 -248 -1 -140 0 -147 22
-171 35 -37 67 -41 115 -17 67 33 123 113 157 222 66 211 183 287 313 202 34
-22 37 -28 37 -72 0 -26 -9 -79 -20 -117 -24 -85 -25 -146 -4 -191 21 -44 60
-64 124 -64 45 0 56 4 81 31 36 38 45 88 31 158 -16 76 -62 147 -171 265 -63
68 -104 122 -124 164 -27 58 -29 70 -25 145 3 69 9 92 38 145 73 137 202 202
402 202 198 0 313 -86 325 -244 7 -88 -16 -155 -76 -216 -67 -70 -143 -86
-209 -44 -20 13 -22 22 -20 86 1 59 -1 73 -17 84 -49 36 -105 0 -105 -67 0
-40 5 -47 148 -188 153 -152 192 -206 218 -305 58 -218 -81 -459 -311 -541
-75 -26 -252 -32 -335 -10 -84 22 -155 60 -191 104 l-28 34 -40 -36 c-122
-110 -319 -143 -459 -76 -54 26 -138 107 -167 162 -11 20 -22 36 -26 35 -3 -2
-29 -31 -58 -65 -81 -98 -157 -144 -270 -162 -151 -24 -313 49 -387 175 l-25
43 -72 -72 c-101 -101 -163 -130 -287 -135 -80 -3 -104 0 -155 19 -69 26 -155
104 -175 161 l-14 37 -75 -78 c-87 -88 -153 -124 -259 -142 -152 -25 -293 19
-358 113 -18 26 -34 52 -36 58 -2 6 -29 -14 -61 -44 -32 -31 -88 -70 -124 -88
-57 -28 -79 -33 -158 -36 -107 -5 -184 13 -257 60 -46 29 -106 87 -125 123 -9
16 -17 11 -71 -43 -40 -40 -86 -73 -137 -98 -71 -35 -86 -39 -174 -42 -81 -3
-105 0 -155 18 -69 26 -135 87 -163 149 l-18 42 -35 -44 c-47 -59 -107 -104
-182 -135 -54 -23 -78 -27 -168 -27 -99 0 -110 2 -171 32 -62 31 -131 93 -170
152 l-15 24 -55 -58 c-67 -71 -147 -126 -219 -151 -70 -24 -225 -24 -286 -1
-219 82 -294 304 -225 672 47 252 47 326 0 359 -73 51 -182 -101 -320 -448
-71 -175 -89 -256 -99 -424 -10 -173 -14 -184 -84 -203 -56 -15 -174 -5 -230
19 -108 48 -110 103 -25 696 60 422 116 597 220 691 57 51 96 65 181 65 86 0
141 -22 146 -58 2 -13 -15 -86 -38 -164 -23 -77 -39 -142 -37 -144 2 -2 30 29
61 70 129 168 254 254 384 264 82 5 136 -8 191 -49 94 -68 114 -195 65 -424
-50 -240 -64 -330 -64 -417 0 -111 15 -152 63 -167 115 -38 250 141 304 403
14 67 38 154 55 194 71 171 194 310 340 382 107 52 179 69 303 70 l100 0 18
93 c52 268 134 428 247 484 48 25 162 24 210 -1 46 -24 80 -56 91 -84 7 -17 2
-36 -17 -75 -151 -297 -306 -1285 -225 -1434 15 -29 53 -39 92 -23 96 40 186
196 238 417 51 216 107 330 220 446 110 114 236 167 395 167 107 0 163 -17
235 -71 l48 -37 37 39 c50 51 111 73 179 66 96 -10 153 -52 164 -123 5 -29 -3
-52 -45 -132 -57 -111 -113 -268 -138 -392 -23 -111 -24 -272 -2 -322 54 -120
173 -70 268 112 l40 79 5 148 c6 228 34 378 126 679 83 274 230 635 315 771
126 203 250 273 403 227z m-5164 -312 c77 -39 135 -122 135 -192 0 -17 -20
-70 -44 -118 -248 -495 -396 -1185 -331 -1551 43 -244 93 -343 204 -403 26
-14 31 -23 31 -54 0 -58 -33 -115 -88 -152 -154 -104 -303 -73 -408 85 -92
139 -154 391 -154 627 l0 51 -125 2 c-139 1 -272 16 -386 42 l-76 18 -69 -91
c-130 -172 -298 -323 -440 -395 -156 -79 -343 -64 -446 36 -87 85 -136 297
-85 367 12 17 16 16 72 -10 154 -71 291 -30 465 140 133 129 264 307 510 694
198 312 313 459 419 537 22 17 41 34 41 38 0 5 -30 6 -67 2 -38 -3 -97 -8
-133 -11 -319 -27 -658 -167 -815 -336 -77 -83 -93 -153 -54 -230 l21 -42 -23
-19 c-33 -27 -102 -17 -196 27 -91 44 -174 120 -210 195 -25 50 -28 67 -28
156 0 126 20 170 122 272 59 60 90 81 175 122 230 110 479 159 853 168 295 7
553 -15 757 -64 59 -14 72 -15 76 -4 8 25 71 88 105 105 42 22 138 16 192 -12z
m4453 -57 c-7 -16 -15 -22 -21 -16 -13 13 -1 41 17 41 13 0 14 -4 4 -25z
m-3771 -497 c-3 -7 -5 -2 -5 12 0 14 2 19 5 13 2 -7 2 -19 0 -25z m3873 -1838
c330 -12 553 -28 600 -43 29 -10 35 -17 38 -45 4 -40 -40 -113 -94 -156 -69
-54 -87 -56 -583 -56 -1026 0 -2150 -80 -2686 -190 -194 -40 -395 -108 -485
-165 -45 -28 -88 -78 -96 -111 -9 -37 3 -95 26 -127 54 -72 -65 -86 -220 -25
-180 71 -296 191 -307 318 -8 83 14 136 82 198 256 234 1020 367 2320 405 255
8 1174 6 1405 -3z"/>
<path d="M5778 9933 c-46 -52 -77 -146 -89 -268 -16 -150 -16 -149 3 -153 19
-4 38 69 38 147 0 48 24 155 54 241 17 50 16 58 -6 33z"/>
<path d="M5487 9893 c-8 -16 -17 -41 -21 -56 -8 -36 11 -107 29 -107 10 0 14
22 17 95 2 52 0 95 -4 95 -4 0 -14 -12 -21 -27z"/>
<path d="M6114 9857 c-37 -55 -54 -94 -70 -163 -19 -84 -24 -92 -85 -160 -27
-30 -49 -59 -49 -64 0 -6 11 -10 25 -10 35 0 120 115 141 189 13 49 58 191 72
229 9 24 -13 11 -34 -21z"/>
<path d="M5423 8385 c-28 -20 -29 -33 -2 -61 18 -20 19 -26 9 -64 -6 -24 -9
-53 -6 -64 6 -25 128 -146 147 -146 6 0 -9 18 -35 41 -67 59 -62 71 27 63 80
-8 111 -20 144 -58 23 -26 43 -34 43 -18 0 16 -59 91 -79 101 -11 6 -46 18
-78 26 -69 18 -124 46 -120 60 2 5 26 16 53 23 88 22 181 -15 266 -106 45 -48
47 -49 53 -25 19 79 -60 178 -172 213 -95 29 -221 37 -250 15z"/>
<path d="M6250 7913 c0 -5 5 -14 11 -20 16 -16 7 -186 -10 -207 -21 -25 3 -19
27 7 42 45 48 114 16 178 -14 28 -44 57 -44 42z"/>
<path d="M6154 7815 c-8 -20 -12 -46 -8 -57 3 -11 1 -39 -6 -62 -6 -23 -10
-59 -8 -80 l3 -39 42 41 c56 55 67 115 32 179 -13 25 -27 47 -32 50 -4 2 -14
-12 -23 -32z"/>
<path d="M5215 7831 c-5 -10 65 -35 73 -26 3 2 2 11 -1 20 -7 17 -62 21 -72 6z"/>
<path d="M4868 6621 c-27 -24 -33 -36 -33 -71 0 -35 6 -47 33 -71 36 -32 69
-36 112 -14 37 19 50 43 50 93 0 33 -6 45 -31 66 -42 36 -89 35 -131 -3z"/>
<path d="M5553 6586 c-62 -28 -84 -99 -46 -150 56 -77 167 -45 180 52 4 33 1
44 -23 70 -35 38 -69 46 -111 28z"/>
<path d="M7569 3523 c-41 -10 -103 -186 -209 -587 -17 -65 -30 -120 -28 -122
5 -4 145 248 196 351 50 101 92 233 92 289 0 46 -22 75 -51 69z"/>
<path d="M4590 2441 c-150 -46 -251 -236 -254 -476 -2 -181 48 -252 160 -230
126 23 216 271 225 619 2 70 0 81 -17 87 -24 10 -82 9 -114 0z"/>
<path d="M5995 2432 c-47 -22 -115 -93 -144 -149 -51 -101 -66 -171 -66 -313
0 -121 2 -139 23 -177 28 -53 47 -63 116 -63 48 0 60 4 91 31 65 57 107 175
155 429 12 63 28 137 36 164 7 27 13 50 11 51 -21 18 -82 38 -126 42 -41 3
-67 -1 -96 -15z"/>
<path d="M2016 2979 c-25 -28 -75 -92 -109 -143 -73 -105 -367 -566 -390 -612
l-16 -31 72 -12 c111 -17 297 -33 313 -27 8 3 14 18 14 34 0 85 109 656 146
766 13 38 22 72 20 73 -2 2 -24 -19 -50 -48z"/>
</g>
</svg>
